<svg width="20" height="20" viewBox="0 0 20 20" fill="none" xmlns="http://www.w3.org/2000/svg">
<path d="M1.83333 15V13.3333H18.5V15H1.83333ZM2.79167 9.95833L1.70833 9.33333L2.41667 8.08333H1V6.83333H2.41667L1.70833 5.625L2.79167 5L3.5 6.20833L4.20833 5L5.29167 5.625L4.58333 6.83333H6V8.08333H4.58333L5.29167 9.33333L4.20833 9.95833L3.5 8.70833L2.79167 9.95833ZM9.45833 9.95833L8.375 9.33333L9.08333 8.08333H7.66667V6.83333H9.08333L8.375 5.625L9.45833 5L10.1667 6.20833L10.875 5L11.9583 5.625L11.25 6.83333H12.6667V8.08333H11.25L11.9583 9.33333L10.875 9.95833L10.1667 8.70833L9.45833 9.95833ZM16.125 9.95833L15.0417 9.33333L15.75 8.08333H14.3333V6.83333H15.75L15.0417 5.625L16.125 5L16.8333 6.20833L17.5417 5L18.625 5.625L17.9167 6.83333H19.3333V8.08333H17.9167L18.625 9.33333L17.5417 9.95833L16.8333 8.70833L16.125 9.95833Z" fill="#25ADDE"/>
</svg>
