<svg width="20" height="20" viewBox="0 0 20 20" fill="none" xmlns="http://www.w3.org/2000/svg">
<path d="M9.5 17C7.41667 17 5.64583 16.2708 4.1875 14.8125C2.72917 13.3542 2 11.5833 2 9.5C2 7.41667 2.72917 5.64583 4.1875 4.1875C5.64583 2.72917 7.41667 2 9.5 2C9.69444 2 9.88556 2.00694 10.0733 2.02083C10.2611 2.03472 10.445 2.05556 10.625 2.08333C10.0556 2.48611 9.60056 3.01056 9.26 3.65667C8.91944 4.30278 8.74944 5.00056 8.75 5.75C8.75 7 9.1875 8.0625 10.0625 8.9375C10.9375 9.8125 12 10.25 13.25 10.25C14.0139 10.25 14.7153 10.0797 15.3542 9.73917C15.9931 9.39861 16.5139 8.94389 16.9167 8.375C16.9444 8.55556 16.9653 8.73944 16.9792 8.92667C16.9931 9.11389 17 9.305 17 9.5C17 11.5833 16.2708 13.3542 14.8125 14.8125C13.3542 16.2708 11.5833 17 9.5 17ZM9.5 15.3333C10.7222 15.3333 11.8194 14.9964 12.7917 14.3225C13.7639 13.6486 14.4722 12.7703 14.9167 11.6875C14.6389 11.7569 14.3611 11.8125 14.0833 11.8542C13.8056 11.8958 13.5278 11.9167 13.25 11.9167C11.5417 11.9167 10.0867 11.3158 8.885 10.1142C7.68333 8.9125 7.08278 7.45778 7.08333 5.75C7.08333 5.47222 7.10417 5.19444 7.14583 4.91667C7.1875 4.63889 7.24306 4.36111 7.3125 4.08333C6.22917 4.52778 5.35056 5.23611 4.67667 6.20833C4.00278 7.18056 3.66611 8.27778 3.66667 9.5C3.66667 11.1111 4.23611 12.4861 5.375 13.625C6.51389 14.7639 7.88889 15.3333 9.5 15.3333Z" fill="#25ADDE"/>
</svg>
