<svg width="25" height="24" viewBox="0 0 25 24" fill="none" xmlns="http://www.w3.org/2000/svg">
<path d="M4.70312 18H15.7031C16.2531 18 16.7031 17.55 16.7031 17C16.7031 16.45 16.2531 16 15.7031 16H4.70312C4.15312 16 3.70312 16.45 3.70312 17C3.70312 17.55 4.15312 18 4.70312 18ZM4.70312 13H12.7031C13.2531 13 13.7031 12.55 13.7031 12C13.7031 11.45 13.2531 11 12.7031 11H4.70312C4.15312 11 3.70312 11.45 3.70312 12C3.70312 12.55 4.15312 13 4.70312 13ZM3.70312 7C3.70312 7.55 4.15312 8 4.70312 8H15.7031C16.2531 8 16.7031 7.55 16.7031 7C16.7031 6.45 16.2531 6 15.7031 6H4.70312C4.15312 6 3.70312 6.45 3.70312 7ZM21.0031 14.88L18.1231 12L21.0031 9.12C21.3931 8.73 21.3931 8.1 21.0031 7.71C20.6131 7.32 19.9831 7.32 19.5931 7.71L16.0031 11.3C15.6131 11.69 15.6131 12.32 16.0031 12.71L19.5931 16.3C19.9831 16.69 20.6131 16.69 21.0031 16.3C21.3831 15.91 21.3931 15.27 21.0031 14.88Z" fill="#25ADDE"/>
</svg>
