<svg width="18" height="16" viewBox="0 0 18 16" fill="none" xmlns="http://www.w3.org/2000/svg">
<path d="M16.5003 8.18333C16.5003 3.60833 12.9503 0.5 9.00033 0.5C5.09199 0.5 1.50033 3.54167 1.50033 8.23333C1.00033 8.51667 0.666992 9.05 0.666992 9.66667V11.3333C0.666992 12.25 1.41699 13 2.33366 13H3.16699V7.91667C3.16699 4.69167 5.77533 2.08333 9.00033 2.08333C12.2253 2.08333 14.8337 4.69167 14.8337 7.91667V13.8333H8.16699V15.5H14.8337C15.7503 15.5 16.5003 14.75 16.5003 13.8333V12.8167C16.992 12.5583 17.3337 12.05 17.3337 11.45V9.53333C17.3337 8.95 16.992 8.44167 16.5003 8.18333Z" fill="#25ADDE"/>
<path d="M6.50033 9.66667C6.96056 9.66667 7.33366 9.29357 7.33366 8.83333C7.33366 8.3731 6.96056 8 6.50033 8C6.04009 8 5.66699 8.3731 5.66699 8.83333C5.66699 9.29357 6.04009 9.66667 6.50033 9.66667Z" fill="#25ADDE"/>
<path d="M11.5003 9.66667C11.9606 9.66667 12.3337 9.29357 12.3337 8.83333C12.3337 8.3731 11.9606 8 11.5003 8C11.0401 8 10.667 8.3731 10.667 8.83333C10.667 9.29357 11.0401 9.66667 11.5003 9.66667Z" fill="#25ADDE"/>
<path d="M14.0003 7.19167C13.6003 4.81667 11.5337 3 9.04199 3C6.51699 3 3.80033 5.09167 4.01699 8.375C6.07533 7.53333 7.62533 5.7 8.06699 3.46667C9.15866 5.65833 11.4003 7.16667 14.0003 7.19167Z" fill="#25ADDE"/>
</svg>
