<svg width="47" height="44" viewBox="0 0 47 44" fill="none" xmlns="http://www.w3.org/2000/svg">
<rect width="44" height="44" rx="6" fill="#25ADDE"/>
<path d="M22 12C18.13 12 15 15.13 15 19C15 24.25 22 32 22 32C22 32 29 24.25 29 19C29 15.13 25.87 12 22 12ZM17 19C17 16.24 19.24 14 22 14C24.76 14 27 16.24 27 19C27 21.88 24.12 26.19 22 28.88C19.92 26.21 17 21.85 17 19Z" fill="white"/>
<path d="M22 21.5C23.3807 21.5 24.5 20.3807 24.5 19C24.5 17.6193 23.3807 16.5 22 16.5C20.6193 16.5 19.5 17.6193 19.5 19C19.5 20.3807 20.6193 21.5 22 21.5Z" fill="white"/>
<path d="M32.5 27L37.5 22L32.5 17V27Z" fill="white"/>
</svg>
