<svg width="17" height="16" viewBox="0 0 17 16" fill="none" xmlns="http://www.w3.org/2000/svg">
<path d="M5.16732 5.99967C5.9037 5.99967 6.50065 5.40272 6.50065 4.66634C6.50065 3.92996 5.9037 3.33301 5.16732 3.33301C4.43094 3.33301 3.83398 3.92996 3.83398 4.66634C3.83398 5.40272 4.43094 5.99967 5.16732 5.99967Z" fill="#25ADDE"/>
<path d="M13.834 8.66634V3.21967C13.834 2.17967 12.9873 1.33301 11.9473 1.33301C11.4473 1.33301 10.9673 1.53301 10.614 1.88634L9.78065 2.71967C9.67398 2.68634 9.56065 2.66634 9.44065 2.66634C9.17398 2.66634 8.92732 2.74634 8.72065 2.87967L10.5607 4.71967C10.694 4.51301 10.774 4.26634 10.774 3.99967C10.774 3.87967 10.754 3.77301 10.7273 3.65967L11.5607 2.82634C11.6607 2.72634 11.8007 2.66634 11.9473 2.66634C12.254 2.66634 12.5007 2.91301 12.5007 3.21967V8.66634H7.93398C7.73398 8.52634 7.55398 8.36634 7.38732 8.18634L6.45398 7.15301C6.32732 7.01301 6.16732 6.89967 5.99398 6.81967C5.78732 6.71967 5.56065 6.66634 5.32732 6.66634C4.50065 6.67301 3.83398 7.33967 3.83398 8.16634V8.66634H1.83398V12.6663C1.83398 13.3997 2.43398 13.9997 3.16732 13.9997C3.16732 14.3663 3.46732 14.6663 3.83398 14.6663H13.1673C13.534 14.6663 13.834 14.3663 13.834 13.9997C14.5673 13.9997 15.1673 13.3997 15.1673 12.6663V8.66634H13.834ZM13.834 12.6663H3.16732V9.99967H13.834V12.6663Z" fill="#25ADDE"/>
</svg>
