<svg width="17" height="16" viewBox="0 0 17 16" fill="none" xmlns="http://www.w3.org/2000/svg">
<path d="M8.50065 1.33301C5.92065 1.33301 3.83398 3.41967 3.83398 5.99967C3.83398 9.49967 8.50065 14.6663 8.50065 14.6663C8.50065 14.6663 13.1673 9.49967 13.1673 5.99967C13.1673 3.41967 11.0807 1.33301 8.50065 1.33301ZM5.16732 5.99967C5.16732 4.15967 6.66065 2.66634 8.50065 2.66634C10.3407 2.66634 11.834 4.15967 11.834 5.99967C11.834 7.91967 9.91398 10.793 8.50065 12.5863C7.11398 10.8063 5.16732 7.89967 5.16732 5.99967Z" fill="#25ADDE"/>
<path d="M8.50065 7.66634C9.42113 7.66634 10.1673 6.92015 10.1673 5.99967C10.1673 5.0792 9.42113 4.33301 8.50065 4.33301C7.58018 4.33301 6.83398 5.0792 6.83398 5.99967C6.83398 6.92015 7.58018 7.66634 8.50065 7.66634Z" fill="#25ADDE"/>
</svg>
