<svg width="17" height="16" viewBox="0 0 17 16" fill="none" xmlns="http://www.w3.org/2000/svg">
<path d="M14.5007 7.18634V5.33301C14.5007 4.23301 13.6007 3.33301 12.5007 3.33301H9.83398C9.32065 3.33301 8.85398 3.53301 8.50065 3.85301C8.14732 3.53301 7.68065 3.33301 7.16732 3.33301H4.50065C3.40065 3.33301 2.50065 4.23301 2.50065 5.33301V7.18634C2.09398 7.55301 1.83398 8.07967 1.83398 8.66634V12.6663H3.16732V11.333H13.834V12.6663H15.1673V8.66634C15.1673 8.07967 14.9073 7.55301 14.5007 7.18634ZM9.83398 4.66634H12.5007C12.8673 4.66634 13.1673 4.96634 13.1673 5.33301V6.66634H9.16732V5.33301C9.16732 4.96634 9.46732 4.66634 9.83398 4.66634ZM3.83398 5.33301C3.83398 4.96634 4.13398 4.66634 4.50065 4.66634H7.16732C7.53398 4.66634 7.83398 4.96634 7.83398 5.33301V6.66634H3.83398V5.33301ZM3.16732 9.99967V8.66634C3.16732 8.29967 3.46732 7.99967 3.83398 7.99967H13.1673C13.534 7.99967 13.834 8.29967 13.834 8.66634V9.99967H3.16732Z" fill="#25ADDE"/>
</svg>
