<svg width="16" height="16" viewBox="0 0 16 16" fill="none" xmlns="http://www.w3.org/2000/svg">
<path d="M11.7737 11.7737L11.067 12.4803L10.5937 12.007L11.3003 11.3003L10.007 10.007L9.30032 10.7137L8.82699 10.2403L9.53366 9.53366L8.24032 8.24032L7.53366 8.94699L7.06033 8.47366L7.76699 7.76699L6.46699 6.46699L5.76033 7.17366L5.28699 6.70033L5.99366 5.99366L4.70033 4.70033L3.99366 5.40699L3.52033 4.93366L4.22699 4.22699L2.66699 2.66699V12.0003C2.66699 12.7337 3.26699 13.3337 4.00033 13.3337H13.3337L11.7737 11.7737ZM4.66699 11.3337V7.49366L8.50699 11.3337H4.66699Z" fill="#25ADDE"/>
</svg>
