<svg width="16" height="16" viewBox="0 0 16 16" fill="none" xmlns="http://www.w3.org/2000/svg">
<path d="M14.274 7.71967L8.27398 1.71967C8.03398 1.47967 7.70065 1.33301 7.33398 1.33301H2.66732C1.93398 1.33301 1.33398 1.93301 1.33398 2.66634V7.33301C1.33398 7.69967 1.48065 8.03301 1.72732 8.27967L7.72732 14.2797C7.96732 14.5197 8.30065 14.6663 8.66732 14.6663C9.03398 14.6663 9.36732 14.5197 9.60732 14.273L14.274 9.60634C14.5207 9.36634 14.6673 9.03301 14.6673 8.66634C14.6673 8.29967 14.514 7.95967 14.274 7.71967ZM8.66732 13.3397L2.66732 7.33301V2.66634H7.33398V2.65967L13.334 8.65967L8.66732 13.3397Z" fill="#25ADDE"/>
<path d="M4.33398 5.33301C4.88627 5.33301 5.33398 4.88529 5.33398 4.33301C5.33398 3.78072 4.88627 3.33301 4.33398 3.33301C3.7817 3.33301 3.33398 3.78072 3.33398 4.33301C3.33398 4.88529 3.7817 5.33301 4.33398 5.33301Z" fill="#25ADDE"/>
</svg>
