<svg width="20" height="20" viewBox="0 0 20 20" fill="none" xmlns="http://www.w3.org/2000/svg">
<path d="M9.5 7.66667C10.163 7.66667 10.7989 7.93006 11.2678 8.3989C11.7366 8.86774 12 9.50362 12 10.1667C12 10.8297 11.7366 11.4656 11.2678 11.9344C10.7989 12.4033 10.163 12.6667 9.5 12.6667C8.83696 12.6667 8.20107 12.4033 7.73223 11.9344C7.26339 11.4656 7 10.8297 7 10.1667C7 9.50362 7.26339 8.86774 7.73223 8.3989C8.20107 7.93006 8.83696 7.66667 9.5 7.66667ZM14.3833 16.2583C13.025 17.85 11.4 18.875 9.5 19.3333C7.36667 18.825 5.58333 17.6083 4.15 15.6917C2.71667 13.7833 2 11.6667 2 9.33333V4.33333L9.5 1L17 4.33333V9.33333C17 11.325 16.4667 13.175 15.4 14.8917L12.975 12.4667C13.4083 11.8083 13.6667 11 13.6667 10.1667C13.6667 9.0616 13.2277 8.00179 12.4463 7.22039C11.6649 6.43899 10.6051 6 9.5 6C8.39493 6 7.33512 6.43899 6.55372 7.22039C5.77232 8.00179 5.33333 9.0616 5.33333 10.1667C5.33333 11.2717 5.77232 12.3315 6.55372 13.1129C7.33512 13.8943 8.39493 14.3333 9.5 14.3333C10.3333 14.3333 11.1417 14.075 11.8 13.6417L14.3833 16.2583Z" fill="#25ADDE"/>
</svg>
