<svg width="21" height="20" viewBox="0 0 21 20" fill="none" xmlns="http://www.w3.org/2000/svg">
<path d="M11.75 2.5C7.60833 2.5 4.25 5.85833 4.25 10H1.75L4.99167 13.2417L5.05 13.3583L8.41667 10H5.91667C5.91667 6.775 8.525 4.16667 11.75 4.16667C14.975 4.16667 17.5833 6.775 17.5833 10C17.5833 13.225 14.975 15.8333 11.75 15.8333C10.1417 15.8333 8.68333 15.175 7.63333 14.1167L6.45 15.3C7.80833 16.6583 9.675 17.5 11.75 17.5C15.8917 17.5 19.25 14.1417 19.25 10C19.25 5.85833 15.8917 2.5 11.75 2.5ZM10.9167 6.66667V10.8333L14.4583 12.9333L15.1 11.8667L12.1667 10.125V6.66667H10.9167Z" fill="#25ADDE"/>
</svg>
