<svg width="24" height="24" viewBox="0 0 24 24" fill="none" xmlns="http://www.w3.org/2000/svg">
<path d="M16.6454 7.0541L18.0854 8.4941L13.2054 13.3741L9.91539 10.0841C9.52539 9.6941 8.89539 9.6941 8.50539 10.0841L2.50539 16.0941C2.11539 16.4841 2.11539 17.1141 2.50539 17.5041C2.89539 17.8941 3.52539 17.8941 3.91539 17.5041L9.20539 12.2041L12.4954 15.4941C12.8854 15.8841 13.5154 15.8841 13.9054 15.4941L19.4954 9.9141L20.9354 11.3541C21.2454 11.6641 21.7854 11.4441 21.7854 11.0041V6.7041C21.7954 6.4241 21.5754 6.2041 21.2954 6.2041H17.0054C16.5554 6.2041 16.3354 6.7441 16.6454 7.0541Z" fill="#25ADDE"/>
</svg>
