<svg width="20" height="20" viewBox="0 0 20 20" fill="none" xmlns="http://www.w3.org/2000/svg">
<path d="M19 16.5563C19 16.9237 18.8718 17.2357 18.6153 17.4922L17.5026 18.6153C17.2322 18.8718 16.9168 19 16.5563 19C16.1889 19 15.8769 18.8718 15.6205 18.6153L11.8458 14.8302C11.5823 14.5806 11.4506 14.2686 11.4506 13.8943C11.4506 13.5269 11.5997 13.1941 11.8977 12.896L9.2357 10.234L7.92548 11.5442C7.82842 11.6412 7.71057 11.6898 7.57192 11.6898C7.43328 11.6898 7.31542 11.6412 7.21837 11.5442C7.23224 11.5581 7.27556 11.5997 7.34835 11.669C7.42114 11.7383 7.46447 11.7834 7.47834 11.8042C7.4922 11.825 7.52686 11.8648 7.58232 11.9237C7.63778 11.9827 7.67244 12.0295 7.68631 12.0641C7.70017 12.0988 7.72097 12.1456 7.7487 12.2045C7.77643 12.2634 7.79549 12.3206 7.80589 12.3761C7.81629 12.4315 7.82149 12.4939 7.82149 12.5633C7.82149 12.8267 7.72444 13.0624 7.53033 13.2704C7.50953 13.2912 7.45234 13.3536 7.35875 13.4575C7.26516 13.5615 7.19931 13.6326 7.16118 13.6707C7.12305 13.7088 7.05893 13.766 6.9688 13.8423C6.87868 13.9185 6.80243 13.9723 6.74003 14.0035C6.67764 14.0347 6.60139 14.0659 6.51127 14.0971C6.42114 14.1282 6.33102 14.1438 6.2409 14.1438C5.9636 14.1438 5.7279 14.0468 5.5338 13.8527L1.29116 9.61005C1.09705 9.41594 1 9.18024 1 8.90295C1 8.81282 1.0156 8.7227 1.04679 8.63258C1.07799 8.54246 1.10919 8.4662 1.14038 8.40381C1.17158 8.34142 1.2253 8.26516 1.30156 8.17504C1.37782 8.08492 1.43501 8.0208 1.47314 7.98267C1.51127 7.94454 1.58232 7.87868 1.68631 7.7851C1.79029 7.69151 1.85269 7.63432 1.87348 7.61352C2.08146 7.41941 2.31716 7.32236 2.58059 7.32236C2.64991 7.32236 2.7123 7.32756 2.76776 7.33795C2.82322 7.34835 2.88042 7.36742 2.93934 7.39515C2.99827 7.42288 3.04506 7.44367 3.07972 7.45754C3.11438 7.4714 3.16118 7.50607 3.2201 7.56152C3.27903 7.61698 3.31889 7.65165 3.33969 7.66551C3.36049 7.67938 3.40555 7.7227 3.47487 7.79549C3.54419 7.86828 3.58579 7.91161 3.59965 7.92548C3.5026 7.82842 3.45407 7.71057 3.45407 7.57192C3.45407 7.43328 3.5026 7.31542 3.59965 7.21837L7.21837 3.59965C7.31542 3.5026 7.43328 3.45407 7.57192 3.45407C7.71057 3.45407 7.82842 3.5026 7.92548 3.59965C7.91161 3.58579 7.86828 3.54419 7.79549 3.47487C7.7227 3.40555 7.67938 3.36049 7.66551 3.33969C7.65165 3.31889 7.61698 3.27903 7.56152 3.2201C7.50607 3.16118 7.4714 3.11438 7.45754 3.07972C7.44367 3.04506 7.42288 2.99827 7.39515 2.93934C7.36742 2.88042 7.34835 2.82322 7.33795 2.76776C7.32756 2.7123 7.32236 2.64991 7.32236 2.58059C7.32236 2.31716 7.41941 2.08146 7.61352 1.87348C7.63432 1.85269 7.69151 1.79029 7.7851 1.68631C7.87868 1.58232 7.94454 1.51127 7.98267 1.47314C8.0208 1.43501 8.08492 1.37782 8.17504 1.30156C8.26516 1.2253 8.34142 1.17158 8.40381 1.14038C8.4662 1.10919 8.54246 1.07799 8.63258 1.04679C8.7227 1.0156 8.81282 1 8.90295 1C9.18024 1 9.41594 1.09705 9.61005 1.29116L13.8527 5.5338C14.0468 5.7279 14.1438 5.9636 14.1438 6.2409C14.1438 6.33102 14.1282 6.42114 14.0971 6.51127C14.0659 6.60139 14.0347 6.67764 14.0035 6.74003C13.9723 6.80243 13.9185 6.87868 13.8423 6.9688C13.766 7.05893 13.7088 7.12305 13.6707 7.16118C13.6326 7.19931 13.5615 7.26516 13.4575 7.35875C13.3536 7.45234 13.2912 7.50953 13.2704 7.53033C13.0624 7.72444 12.8267 7.82149 12.5633 7.82149C12.4939 7.82149 12.4315 7.81629 12.3761 7.80589C12.3206 7.79549 12.2634 7.77643 12.2045 7.7487C12.1456 7.72097 12.0988 7.70017 12.0641 7.68631C12.0295 7.67244 11.9827 7.63778 11.9237 7.58232C11.8648 7.52686 11.825 7.4922 11.8042 7.47834C11.7834 7.46447 11.7383 7.42114 11.669 7.34835C11.5997 7.27556 11.5581 7.23224 11.5442 7.21837C11.6412 7.31542 11.6898 7.43328 11.6898 7.57192C11.6898 7.71057 11.6412 7.82842 11.5442 7.92548L10.234 9.2357L12.896 11.8977C13.1941 11.5997 13.5269 11.4506 13.8943 11.4506C14.2548 11.4506 14.5702 11.5789 14.8406 11.8354L18.6153 15.6101C18.8718 15.8804 19 16.1958 19 16.5563Z" fill="#25ADDE"/>
</svg>
