<svg width="42" height="42" viewBox="0 0 42 42" fill="none" xmlns="http://www.w3.org/2000/svg">
<circle cx="21" cy="21" r="20" fill="#25ADDE" stroke="white"/>
<path d="M23.12 14L24.95 16H29V28H13V16H17.05L18.88 14H23.12ZM24 12H18L16.17 14H13C11.9 14 11 14.9 11 16V28C11 29.1 11.9 30 13 30H29C30.1 30 31 29.1 31 28V16C31 14.9 30.1 14 29 14H25.83L24 12ZM21 19C22.65 19 24 20.35 24 22C24 23.65 22.65 25 21 25C19.35 25 18 23.65 18 22C18 20.35 19.35 19 21 19ZM21 17C18.24 17 16 19.24 16 22C16 24.76 18.24 27 21 27C23.76 27 26 24.76 26 22C26 19.24 23.76 17 21 17Z" fill="white"/>
</svg>
